<?xml version="1.0" encoding="UTF-8"?>
<!DOCTYPE svg PUBLIC "-//W3C//DTD SVG 1.1//EN" "http://www.w3.org/Graphics/SVG/1.1/DTD/svg11.dtd">
<svg version="1.1" xmlns="http://www.w3.org/2000/svg" xmlns:xlink="http://www.w3.org/1999/xlink" x="0" y="0" width="745.062" height="856.43" viewBox="0, 0, 745.062, 856.43">
  <defs>
    <clipPath id="Clip_1">
      <path d="M-0,0 L745.062,0 L745.062,856.494 L-0,856.494 z"/>
    </clipPath>
    <clipPath id="Clip_2">
      <path d="M-0,0 L745.062,0 L745.062,856.494 L-0,856.494 z"/>
    </clipPath>
    <clipPath id="Clip_3">
      <path d="M-0,0 L745.062,0 L745.062,856.494 L-0,856.494 z"/>
    </clipPath>
  </defs>
  <g id="Layer_1">
    <path d="M683.775,764.358 C697.167,790.311 686.988,822.201 661.035,835.593 C635.085,848.985 603.192,838.809 589.8,812.856 C576.408,786.906 586.587,755.013 612.537,741.621 C638.49,728.226 670.383,738.408 683.775,764.358" fill="#8E8F8E" id="path4294"/>
    <path d="M683.775,764.358 C697.167,790.311 686.988,822.201 661.035,835.593 C635.085,848.985 603.192,838.809 589.8,812.856 C576.408,786.906 586.587,755.013 612.537,741.621 C638.49,728.226 670.383,738.408 683.775,764.358 z" fill-opacity="0" stroke="#1A1919" stroke-width="30" stroke-linecap="round" stroke-linejoin="round" id="path4296"/>
    <path d="M528.162,742.206 C502.455,692.391 474.096,661.149 422.076,643.716 C361.779,623.517 302.325,594.333 271.008,533.649 C218.055,431.043 258.681,304.749 361.749,251.559 C464.814,198.372 591.288,238.431 644.238,341.04 C675.819,402.234 665.67,468.414 645.726,529.374 C628.719,581.352 638.826,623.085 664.533,672.906" fill="#F9C623" id="path4298"/>
    <path d="M528.162,742.206 C502.455,692.391 474.096,661.149 422.076,643.716 C361.779,623.517 302.325,594.333 271.008,533.649 C218.055,431.043 258.681,304.749 361.749,251.559 C464.814,198.372 591.288,238.431 644.238,341.04 C675.819,402.234 665.67,468.414 645.726,529.374 C628.719,581.352 638.826,623.085 664.533,672.906" fill-opacity="0" stroke="#1A1919" stroke-width="30" id="path4300"/>
    <path d="M677.397,662.607 C681.192,669.951 676.869,679.725 667.746,684.435 L533.724,753.597 C524.598,758.31 514.128,756.168 510.336,748.821 L505.494,739.437 C501.702,732.09 506.025,722.316 515.148,717.609 L649.173,648.444 C658.296,643.737 668.763,645.876 672.558,653.223 L677.397,662.607" fill="#FFFFFE" id="path4302"/>
    <path d="M677.397,662.607 C681.192,669.951 676.869,679.725 667.746,684.435 L533.724,753.597 C524.598,758.31 514.128,756.168 510.336,748.821 L505.494,739.437 C501.702,732.09 506.025,722.316 515.148,717.609 L649.173,648.444 C658.296,643.737 668.763,645.876 672.558,653.223 z" fill-opacity="0" stroke="#1A1919" stroke-width="23.544" stroke-linecap="round" stroke-linejoin="round" id="path4304"/>
    <path d="M695.973,698.595 C699.762,705.942 695.442,715.716 686.319,720.426 L552.294,789.588 C543.171,794.298 532.701,792.159 528.909,784.812 L524.067,775.431 C520.275,768.081 524.598,758.31 533.724,753.597 L667.746,684.435 C676.869,679.725 687.339,681.867 691.131,689.211 L695.973,698.595" fill="#FFFFFE" id="path4306"/>
    <path d="M695.973,698.595 C699.762,705.942 695.442,715.716 686.319,720.426 L552.294,789.588 C543.171,794.298 532.701,792.159 528.909,784.812 L524.067,775.431 C520.275,768.081 524.598,758.31 533.724,753.597 L667.746,684.435 C676.869,679.725 687.339,681.867 691.131,689.211 z" fill-opacity="0" stroke="#1A1919" stroke-width="23.544" stroke-linecap="round" stroke-linejoin="round" id="path4308"/>
    <path d="M714.546,734.586 C718.338,741.936 714.015,751.71 704.895,756.42 L570.873,825.582 C561.747,830.295 551.271,828.15 547.482,820.803 L542.64,811.425 C538.851,804.075 543.171,794.298 552.294,789.588 L686.319,720.426 C695.442,715.716 705.915,717.861 709.707,725.208 L714.546,734.586" fill="#FFFFFE" id="path4310"/>
    <path d="M714.546,734.586 C718.338,741.936 714.015,751.71 704.895,756.42 L570.873,825.582 C561.747,830.295 551.271,828.15 547.482,820.803 L542.64,811.425 C538.851,804.075 543.171,794.298 552.294,789.588 L686.319,720.426 C695.442,715.716 705.915,717.861 709.707,725.208 z" fill-opacity="0" stroke="#1A1919" stroke-width="23.544" stroke-linecap="round" stroke-linejoin="round" id="path4312"/>
    <path d="M568.278,567.813 C563.91,560.22 564.015,525.639 568.335,506.508 C578.259,462.591 564.231,423.462 530.007,421.755 C491.508,419.829 482.355,458.553 498.738,480.48 C512.64,499.092 534.699,486.273 529.107,463.674 C524.955,446.892 500.439,420.342 463.407,437.649 L455.412,441.777 C419.853,461.934 427.287,497.295 438.558,510.402 C453.738,528.054 476.967,517.503 469.854,495.387 C461.472,469.329 424.605,454.356 403.875,486.846 C385.434,515.733 409.197,549.837 450.744,567.192 C468.84,574.755 497.085,594.705 500.742,602.667" fill-opacity="0" stroke="#1A1919" stroke-width="14.415" stroke-linecap="round" stroke-linejoin="round" id="path4314"/>
    <path d="M321.465,144.063 C324.882,150.69 322.284,158.832 315.657,162.249 C309.033,165.672 300.888,163.071 297.471,156.444 C294.051,149.82 296.649,141.678 303.276,138.258 C309.9,134.838 318.045,137.436 321.465,144.063" fill="#E46E2A" id="path4316"/>
    <path d="M299.451,101.409 C302.871,108.033 300.27,116.178 293.646,119.595 C287.019,123.015 278.877,120.417 275.46,113.79 C272.037,107.166 274.638,99.021 281.262,95.604 C287.889,92.181 296.031,94.782 299.451,101.409" fill="#E46E2A" id="path4318"/>
    <path d="M277.44,58.752 C280.86,65.379 278.262,73.521 271.635,76.941 C265.008,80.361 256.866,77.76 253.446,71.136 C250.026,64.509 252.627,56.367 259.254,52.947 C265.878,49.527 274.017,52.128 277.44,58.752" fill="#E46E2A" id="path4320"/>
    <path d="M510.405,110.031 C510.057,117.477 503.736,123.231 496.287,122.88 C488.838,122.526 483.087,116.202 483.438,108.756 C483.789,101.307 490.113,95.556 497.559,95.91 C505.008,96.261 510.759,102.582 510.405,110.031" fill="#E46E2A" id="path4322"/>
    <g clip-path="url(#Clip_1)" id="g4328">
      <path d="M512.67,62.085 C512.322,69.534 505.998,75.282 498.549,74.931 C491.106,74.58 485.352,68.259 485.703,60.813 C486.054,53.364 492.378,47.61 499.824,47.961 C507.27,48.315 513.024,54.639 512.67,62.085" fill="#E46E2A" id="path4324"/>
      <path d="M514.935,14.136 C514.584,21.585 508.263,27.339 500.814,26.985 C493.368,26.631 487.617,20.31 487.965,12.864 C488.319,5.415 494.64,-0.336 502.089,0.015 C509.535,0.366 515.286,6.69 514.935,14.136" fill="#E46E2A" id="path4326"/>
    </g>
    <path d="M691.053,175.029 C687.024,181.305 678.675,183.126 672.402,179.097 C666.129,175.065 664.308,166.713 668.334,160.44 C672.366,154.167 680.715,152.346 686.991,156.378 C693.261,160.401 695.085,168.753 691.053,175.029" fill="#E46E2A" id="path4330"/>
    <g clip-path="url(#Clip_2)" id="g4336">
      <path d="M716.991,134.64 C712.959,140.913 704.61,142.731 698.337,138.705 C692.061,134.679 690.24,126.327 694.266,120.051 C698.295,113.778 706.647,111.954 712.92,115.983 C719.196,120.009 721.017,128.367 716.991,134.64" fill="#E46E2A" id="path4332"/>
      <path d="M742.92,94.245 C738.891,100.521 730.542,102.342 724.266,98.31 C717.996,94.281 716.175,85.932 720.201,79.659 C724.233,73.386 732.582,71.565 738.858,75.594 C745.131,79.62 746.949,87.972 742.92,94.245" fill="#E46E2A" id="path4334"/>
    </g>
    <path d="M174.849,268.008 C181.125,272.037 182.946,280.389 178.917,286.662 C174.888,292.935 166.536,294.756 160.26,290.727 C153.987,286.698 152.166,278.349 156.195,272.073 C160.224,265.8 168.573,263.979 174.849,268.008" fill="#E46E2A" id="path4338"/>
    <path d="M134.46,242.073 C140.733,246.102 142.554,254.454 138.525,260.727 C134.496,267.003 126.144,268.821 119.871,264.795 C113.598,260.766 111.777,252.414 115.806,246.141 C119.832,239.865 128.184,238.047 134.46,242.073" fill="#E46E2A" id="path4340"/>
    <path d="M94.068,216.141 C100.341,220.17 102.162,228.519 98.133,234.795 C94.107,241.068 85.755,242.889 79.479,238.86 C73.206,234.831 71.385,226.479 75.414,220.206 C79.443,213.93 87.792,212.112 94.068,216.141" fill="#E46E2A" id="path4342"/>
    <path d="M109.848,448.653 C117.297,449.007 123.048,455.328 122.7,462.777 C122.346,470.226 116.025,475.974 108.576,475.626 C101.127,475.272 95.376,468.948 95.73,461.502 C96.078,454.056 102.402,448.305 109.848,448.653" fill="#E46E2A" id="path4344"/>
    <g clip-path="url(#Clip_3)" id="g4350">
      <path d="M61.905,446.391 C69.351,446.745 75.102,453.066 74.754,460.515 C74.4,467.958 68.079,473.712 60.63,473.361 C53.184,473.01 47.43,466.689 47.781,459.237 C48.132,451.791 54.456,446.043 61.905,446.391" fill="#E46E2A" id="path4346"/>
      <path d="M13.959,444.126 C21.405,444.48 27.156,450.801 26.805,458.247 C26.454,465.696 20.133,471.447 12.684,471.096 C5.238,470.745 -0.516,464.424 -0.165,456.972 C0.186,449.529 6.507,443.778 13.959,444.126" fill="#E46E2A" id="path4348"/>
    </g>
  </g>
</svg>
